<svg viewBox="-96,-316.25,1152,690" width="1152" height="690" style="max-width: 100%; height: auto; height: intrinsic;" font-family="sans-serif" font-size="10" xmlns="http://www.w3.org/2000/svg"><g fill="none" stroke="#555" stroke-opacity="0.4" stroke-width="1.5"><path d="M0,0C96,0,96,-306.25,192,-306.25"></path><path d="M0,0C96,0,96,-277.5,192,-277.5"></path><path d="M0,0C96,0,96,-248.75,192,-248.75"></path><path d="M0,0C96,0,96,-191.25,192,-191.25"></path><path d="M0,0C96,0,96,-181.25,192,-181.25"></path><path d="M0,0C96,0,96,-171.25,192,-171.25"></path><path d="M0,0C96,0,96,-151.25,192,-151.25"></path><path d="M0,0C96,0,96,-138.75,192,-138.75"></path><path d="M0,0C96,0,96,-126.25,192,-126.25"></path><path d="M0,0C96,0,96,-91.25,192,-91.25"></path><path d="M0,0C96,0,96,-76.25,192,-76.25"></path><path d="M0,0C96,0,96,-61.25,192,-61.25"></path><path d="M0,0C96,0,96,-31.25,192,-31.25"></path><path d="M0,0C96,0,96,-16.25,192,-16.25"></path><path d="M0,0C96,0,96,-1.25,192,-1.25"></path><path d="M0,0C96,0,96,8.75,192,8.75"></path><path d="M0,0C96,0,96,18.75,192,18.75"></path><path d="M0,0C96,0,96,28.75,192,28.75"></path><path d="M0,0C96,0,96,38.75,192,38.75"></path><path d="M0,0C96,0,96,48.75,192,48.75"></path><path d="M0,0C96,0,96,58.75,192,58.75"></path><path d="M0,0C96,0,96,68.75,192,68.75"></path><path d="M0,0C96,0,96,123.75,192,123.75"></path><path d="M0,0C96,0,96,136.25,192,136.25"></path><path d="M0,0C96,0,96,148.75,192,148.75"></path><path d="M0,0C96,0,96,168.75,192,168.75"></path><path d="M0,0C96,0,96,188.75,192,188.75"></path><path d="M0,0C96,0,96,208.75,192,208.75"></path><path d="M0,0C96,0,96,228.75,192,228.75"></path><path d="M0,0C96,0,96,306.25,192,306.25"></path><path d="M192,-306.25C288,-306.25,288,-306.25,384,-306.25"></path><path d="M192,-248.75C288,-248.75,288,-286.25,384,-286.25"></path><path d="M192,-248.75C288,-248.75,288,-276.25,384,-276.25"></path><path d="M192,-248.75C288,-248.75,288,-251.25,384,-251.25"></path><path d="M192,-248.75C288,-248.75,288,-231.25,384,-231.25"></path><path d="M192,-248.75C288,-248.75,288,-211.25,384,-211.25"></path><path d="M192,-191.25C288,-191.25,288,-191.25,384,-191.25"></path><path d="M192,-171.25C288,-171.25,288,-171.25,384,-171.25"></path><path d="M192,-151.25C288,-151.25,288,-151.25,384,-151.25"></path><path d="M192,-126.25C288,-126.25,288,-131.25,384,-131.25"></path><path d="M192,-126.25C288,-126.25,288,-121.25,384,-121.25"></path><path d="M192,-91.25C288,-91.25,288,-101.25,384,-101.25"></path><path d="M192,-91.25C288,-91.25,288,-91.25,384,-91.25"></path><path d="M192,-91.25C288,-91.25,288,-81.25,384,-81.25"></path><path d="M192,-61.25C288,-61.25,288,-61.25,384,-61.25"></path><path d="M192,-31.25C288,-31.25,288,-41.25,384,-41.25"></path><path d="M192,-31.25C288,-31.25,288,-31.25,384,-31.25"></path><path d="M192,-31.25C288,-31.25,288,-21.25,384,-21.25"></path><path d="M192,-1.25C288,-1.25,288,-1.25,384,-1.25"></path><path d="M192,18.75C288,18.75,288,18.75,384,18.75"></path><path d="M192,68.75C288,68.75,288,38.75,384,38.75"></path><path d="M192,68.75C288,68.75,288,48.75,384,48.75"></path><path d="M192,68.75C288,68.75,288,58.75,384,58.75"></path><path d="M192,68.75C288,68.75,288,78.75,384,78.75"></path><path d="M192,68.75C288,68.75,288,98.75,384,98.75"></path><path d="M192,123.75C288,123.75,288,118.75,384,118.75"></path><path d="M192,123.75C288,123.75,288,128.75,384,128.75"></path><path d="M192,148.75C288,148.75,288,148.75,384,148.75"></path><path d="M192,168.75C288,168.75,288,168.75,384,168.75"></path><path d="M192,188.75C288,188.75,288,188.75,384,188.75"></path><path d="M192,228.75C288,228.75,288,208.75,384,208.75"></path><path d="M192,228.75C288,228.75,288,218.75,384,218.75"></path><path d="M192,228.75C288,228.75,288,228.75,384,228.75"></path><path d="M192,228.75C288,228.75,288,238.75,384,238.75"></path><path d="M192,228.75C288,228.75,288,248.75,384,248.75"></path><path d="M192,306.25C288,306.25,288,268.75,384,268.75"></path><path d="M192,306.25C288,306.25,288,278.75,384,278.75"></path><path d="M192,306.25C288,306.25,288,303.75,384,303.75"></path><path d="M192,306.25C288,306.25,288,323.75,384,323.75"></path><path d="M192,306.25C288,306.25,288,343.75,384,343.75"></path><path d="M384,-276.25C480,-276.25,480,-281.25,576,-281.25"></path><path d="M384,-276.25C480,-276.25,480,-271.25,576,-271.25"></path><path d="M384,-251.25C480,-251.25,480,-251.25,576,-251.25"></path><path d="M384,-211.25C480,-211.25,480,-231.25,576,-231.25"></path><path d="M384,-211.25C480,-211.25,480,-221.25,576,-221.25"></path><path d="M384,-211.25C480,-211.25,480,-211.25,576,-211.25"></path><path d="M384,-211.25C480,-211.25,480,-201.25,576,-201.25"></path><path d="M384,-211.25C480,-211.25,480,-191.25,576,-191.25"></path><path d="M384,-171.25C480,-171.25,480,-171.25,576,-171.25"></path><path d="M384,-151.25C480,-151.25,480,-151.25,576,-151.25"></path><path d="M384,-91.25C480,-91.25,480,-91.25,576,-91.25"></path><path d="M384,-61.25C480,-61.25,480,-71.25,576,-71.25"></path><path d="M384,-61.25C480,-61.25,480,-61.25,576,-61.25"></path><path d="M384,-61.25C480,-61.25,480,-51.25,576,-51.25"></path><path d="M384,-1.25C480,-1.25,480,-1.25,576,-1.25"></path><path d="M384,38.75C480,38.75,480,38.75,576,38.75"></path><path d="M384,58.75C480,58.75,480,58.75,576,58.75"></path><path d="M384,78.75C480,78.75,480,78.75,576,78.75"></path><path d="M384,98.75C480,98.75,480,98.75,576,98.75"></path><path d="M384,128.75C480,128.75,480,128.75,576,128.75"></path><path d="M384,168.75C480,168.75,480,168.75,576,168.75"></path><path d="M384,188.75C480,188.75,480,188.75,576,188.75"></path><path d="M384,238.75C480,238.75,480,238.75,576,238.75"></path><path d="M384,278.75C480,278.75,480,273.75,576,273.75"></path><path d="M384,278.75C480,278.75,480,283.75,576,283.75"></path><path d="M384,303.75C480,303.75,480,303.75,576,303.75"></path><path d="M384,343.75C480,343.75,480,323.75,576,323.75"></path><path d="M384,343.75C480,343.75,480,333.75,576,333.75"></path><path d="M384,343.75C480,343.75,480,343.75,576,343.75"></path><path d="M384,343.75C480,343.75,480,353.75,576,353.75"></path><path d="M384,343.75C480,343.75,480,363.75,576,363.75"></path><path d="M576,-201.25C672,-201.25,672,-201.25,768,-201.25"></path><path d="M576,-61.25C672,-61.25,672,-61.25,768,-61.25"></path><path d="M576,78.75C672,78.75,672,78.75,768,78.75"></path><path d="M576,98.75C672,98.75,672,98.75,768,98.75"></path><path d="M576,188.75C672,188.75,672,188.75,768,188.75"></path><path d="M576,353.75C672,353.75,672,353.75,768,353.75"></path><path d="M768,98.75C864,98.75,864,98.75,960,98.75"></path></g><g><a transform="translate(0,0)"><circle fill="#555" r="3"></circle><title>d3</title><text dy="0.32em" x="-6" text-anchor="end" fill="none" stroke="#fff" stroke-width="3">d3</text><text dy="0.32em" x="-6" text-anchor="end">d3</text></a><a transform="translate(192,-306.25)"><circle fill="#555" r="3"></circle><title>d3.d3-array</title><text dy="0.32em" x="-6" text-anchor="end" fill="none" stroke="#fff" stroke-width="3">d3-array</text><text dy="0.32em" x="-6" text-anchor="end">d3-array</text></a><a transform="translate(192,-277.5)"><circle fill="#999" r="3"></circle><title>d3.d3-axis</title><text dy="0.32em" x="6" text-anchor="start" fill="none" stroke="#fff" stroke-width="3">d3-axis</text><text dy="0.32em" x="6" text-anchor="start">d3-axis</text></a><a transform="translate(192,-248.75)"><circle fill="#555" r="3"></circle><title>d3.d3-brush</title><text dy="0.32em" x="-6" text-anchor="end" fill="none" stroke="#fff" stroke-width="3">d3-brush</text><text dy="0.32em" x="-6" text-anchor="end">d3-brush</text></a><a transform="translate(192,-191.25)"><circle fill="#555" r="3"></circle><title>d3.d3-chord</title><text dy="0.32em" x="-6" text-anchor="end" fill="none" stroke="#fff" stroke-width="3">d3-chord</text><text dy="0.32em" x="-6" text-anchor="end">d3-chord</text></a><a transform="translate(192,-181.25)"><circle fill="#999" r="3"></circle><title>d3.d3-color</title><text dy="0.32em" x="6" text-anchor="start" fill="none" stroke="#fff" stroke-width="3">d3-color</text><text dy="0.32em" x="6" text-anchor="start">d3-color</text></a><a transform="translate(192,-171.25)"><circle fill="#555" r="3"></circle><title>d3.d3-contour</title><text dy="0.32em" x="-6" text-anchor="end" fill="none" stroke="#fff" stroke-width="3">d3-contour</text><text dy="0.32em" x="-6" text-anchor="end">d3-contour</text></a><a transform="translate(192,-151.25)"><circle fill="#555" r="3"></circle><title>d3.d3-delaunay</title><text dy="0.32em" x="-6" text-anchor="end" fill="none" stroke="#fff" stroke-width="3">d3-delaunay</text><text dy="0.32em" x="-6" text-anchor="end">d3-delaunay</text></a><a transform="translate(192,-138.75)"><circle fill="#999" r="3"></circle><title>d3.d3-dispatch</title><text dy="0.32em" x="6" text-anchor="start" fill="none" stroke="#fff" stroke-width="3">d3-dispatch</text><text dy="0.32em" x="6" text-anchor="start">d3-dispatch</text></a><a transform="translate(192,-126.25)"><circle fill="#555" r="3"></circle><title>d3.d3-drag</title><text dy="0.32em" x="-6" text-anchor="end" fill="none" stroke="#fff" stroke-width="3">d3-drag</text><text dy="0.32em" x="-6" text-anchor="end">d3-drag</text></a><a transform="translate(192,-91.25)"><circle fill="#555" r="3"></circle><title>d3.d3-dsv</title><text dy="0.32em" x="-6" text-anchor="end" fill="none" stroke="#fff" stroke-width="3">d3-dsv</text><text dy="0.32em" x="-6" text-anchor="end">d3-dsv</text></a><a transform="translate(192,-76.25)"><circle fill="#999" r="3"></circle><title>d3.d3-ease</title><text dy="0.32em" x="6" text-anchor="start" fill="none" stroke="#fff" stroke-width="3">d3-ease</text><text dy="0.32em" x="6" text-anchor="start">d3-ease</text></a><a transform="translate(192,-61.25)"><circle fill="#555" r="3"></circle><title>d3.d3-fetch</title><text dy="0.32em" x="-6" text-anchor="end" fill="none" stroke="#fff" stroke-width="3">d3-fetch</text><text dy="0.32em" x="-6" text-anchor="end">d3-fetch</text></a><a transform="translate(192,-31.25)"><circle fill="#555" r="3"></circle><title>d3.d3-force</title><text dy="0.32em" x="-6" text-anchor="end" fill="none" stroke="#fff" stroke-width="3">d3-force</text><text dy="0.32em" x="-6" text-anchor="end">d3-force</text></a><a transform="translate(192,-16.25)"><circle fill="#999" r="3"></circle><title>d3.d3-format</title><text dy="0.32em" x="6" text-anchor="start" fill="none" stroke="#fff" stroke-width="3">d3-format</text><text dy="0.32em" x="6" text-anchor="start">d3-format</text></a><a transform="translate(192,-1.25)"><circle fill="#555" r="3"></circle><title>d3.d3-geo</title><text dy="0.32em" x="-6" text-anchor="end" fill="none" stroke="#fff" stroke-width="3">d3-geo</text><text dy="0.32em" x="-6" text-anchor="end">d3-geo</text></a><a transform="translate(192,8.75)"><circle fill="#999" r="3"></circle><title>d3.d3-hierarchy</title><text dy="0.32em" x="6" text-anchor="start" fill="none" stroke="#fff" stroke-width="3">d3-hierarchy</text><text dy="0.32em" x="6" text-anchor="start">d3-hierarchy</text></a><a transform="translate(192,18.75)"><circle fill="#555" r="3"></circle><title>d3.d3-interpolate</title><text dy="0.32em" x="-6" text-anchor="end" fill="none" stroke="#fff" stroke-width="3">d3-interpolate</text><text dy="0.32em" x="-6" text-anchor="end">d3-interpolate</text></a><a transform="translate(192,28.75)"><circle fill="#999" r="3"></circle><title>d3.d3-path</title><text dy="0.32em" x="6" text-anchor="start" fill="none" stroke="#fff" stroke-width="3">d3-path</text><text dy="0.32em" x="6" text-anchor="start">d3-path</text></a><a transform="translate(192,38.75)"><circle fill="#999" r="3"></circle><title>d3.d3-polygon</title><text dy="0.32em" x="6" text-anchor="start" fill="none" stroke="#fff" stroke-width="3">d3-polygon</text><text dy="0.32em" x="6" text-anchor="start">d3-polygon</text></a><a transform="translate(192,48.75)"><circle fill="#999" r="3"></circle><title>d3.d3-quadtree</title><text dy="0.32em" x="6" text-anchor="start" fill="none" stroke="#fff" stroke-width="3">d3-quadtree</text><text dy="0.32em" x="6" text-anchor="start">d3-quadtree</text></a><a transform="translate(192,58.75)"><circle fill="#999" r="3"></circle><title>d3.d3-random</title><text dy="0.32em" x="6" text-anchor="start" fill="none" stroke="#fff" stroke-width="3">d3-random</text><text dy="0.32em" x="6" text-anchor="start">d3-random</text></a><a transform="translate(192,68.75)"><circle fill="#555" r="3"></circle><title>d3.d3-scale</title><text dy="0.32em" x="-6" text-anchor="end" fill="none" stroke="#fff" stroke-width="3">d3-scale</text><text dy="0.32em" x="-6" text-anchor="end">d3-scale</text></a><a transform="translate(192,123.75)"><circle fill="#555" r="3"></circle><title>d3.d3-scale-chromatic</title><text dy="0.32em" x="-6" text-anchor="end" fill="none" stroke="#fff" stroke-width="3">d3-scale-chromatic</text><text dy="0.32em" x="-6" text-anchor="end">d3-scale-chromatic</text></a><a transform="translate(192,136.25)"><circle fill="#999" r="3"></circle><title>d3.d3-selection</title><text dy="0.32em" x="6" text-anchor="start" fill="none" stroke="#fff" stroke-width="3">d3-selection</text><text dy="0.32em" x="6" text-anchor="start">d3-selection</text></a><a transform="translate(192,148.75)"><circle fill="#555" r="3"></circle><title>d3.d3-shape</title><text dy="0.32em" x="-6" text-anchor="end" fill="none" stroke="#fff" stroke-width="3">d3-shape</text><text dy="0.32em" x="-6" text-anchor="end">d3-shape</text></a><a transform="translate(192,168.75)"><circle fill="#555" r="3"></circle><title>d3.d3-time</title><text dy="0.32em" x="-6" text-anchor="end" fill="none" stroke="#fff" stroke-width="3">d3-time</text><text dy="0.32em" x="-6" text-anchor="end">d3-time</text></a><a transform="translate(192,188.75)"><circle fill="#555" r="3"></circle><title>d3.d3-time-format</title><text dy="0.32em" x="-6" text-anchor="end" fill="none" stroke="#fff" stroke-width="3">d3-time-format</text><text dy="0.32em" x="-6" text-anchor="end">d3-time-format</text></a><a transform="translate(192,208.75)"><circle fill="#999" r="3"></circle><title>d3.d3-timer</title><text dy="0.32em" x="6" text-anchor="start" fill="none" stroke="#fff" stroke-width="3">d3-timer</text><text dy="0.32em" x="6" text-anchor="start">d3-timer</text></a><a transform="translate(192,228.75)"><circle fill="#555" r="3"></circle><title>d3.d3-transition</title><text dy="0.32em" x="-6" text-anchor="end" fill="none" stroke="#fff" stroke-width="3">d3-transition</text><text dy="0.32em" x="-6" text-anchor="end">d3-transition</text></a><a transform="translate(192,306.25)"><circle fill="#555" r="3"></circle><title>d3.d3-zoom</title><text dy="0.32em" x="-6" text-anchor="end" fill="none" stroke="#fff" stroke-width="3">d3-zoom</text><text dy="0.32em" x="-6" text-anchor="end">d3-zoom</text></a><a transform="translate(384,-306.25)"><circle fill="#999" r="3"></circle><title>d3.d3-array.internmap</title><text dy="0.32em" x="6" text-anchor="start" fill="none" stroke="#fff" stroke-width="3">internmap</text><text dy="0.32em" x="6" text-anchor="start">internmap</text></a><a transform="translate(384,-286.25)"><circle fill="#999" r="3"></circle><title>d3.d3-brush.d3-dispatch</title><text dy="0.32em" x="6" text-anchor="start" fill="none" stroke="#fff" stroke-width="3">d3-dispatch</text><text dy="0.32em" x="6" text-anchor="start">d3-dispatch</text></a><a transform="translate(384,-276.25)"><circle fill="#555" r="3"></circle><title>d3.d3-brush.d3-drag</title><text dy="0.32em" x="-6" text-anchor="end" fill="none" stroke="#fff" stroke-width="3">d3-drag</text><text dy="0.32em" x="-6" text-anchor="end">d3-drag</text></a><a transform="translate(384,-251.25)"><circle fill="#555" r="3"></circle><title>d3.d3-brush.d3-interpolate</title><text dy="0.32em" x="-6" text-anchor="end" fill="none" stroke="#fff" stroke-width="3">d3-interpolate</text><text dy="0.32em" x="-6" text-anchor="end">d3-interpolate</text></a><a transform="translate(384,-231.25)"><circle fill="#999" r="3"></circle><title>d3.d3-brush.d3-selection</title><text dy="0.32em" x="6" text-anchor="start" fill="none" stroke="#fff" stroke-width="3">d3-selection</text><text dy="0.32em" x="6" text-anchor="start">d3-selection</text></a><a transform="translate(384,-211.25)"><circle fill="#555" r="3"></circle><title>d3.d3-brush.d3-transition</title><text dy="0.32em" x="-6" text-anchor="end" fill="none" stroke="#fff" stroke-width="3">d3-transition</text><text dy="0.32em" x="-6" text-anchor="end">d3-transition</text></a><a transform="translate(384,-191.25)"><circle fill="#999" r="3"></circle><title>d3.d3-chord.d3-path</title><text dy="0.32em" x="6" text-anchor="start" fill="none" stroke="#fff" stroke-width="3">d3-path</text><text dy="0.32em" x="6" text-anchor="start">d3-path</text></a><a transform="translate(384,-171.25)"><circle fill="#555" r="3"></circle><title>d3.d3-contour.d3-array</title><text dy="0.32em" x="-6" text-anchor="end" fill="none" stroke="#fff" stroke-width="3">d3-array</text><text dy="0.32em" x="-6" text-anchor="end">d3-array</text></a><a transform="translate(384,-151.25)"><circle fill="#555" r="3"></circle><title>d3.d3-delaunay.delaunator</title><text dy="0.32em" x="-6" text-anchor="end" fill="none" stroke="#fff" stroke-width="3">delaunator</text><text dy="0.32em" x="-6" text-anchor="end">delaunator</text></a><a transform="translate(384,-131.25)"><circle fill="#999" r="3"></circle><title>d3.d3-drag.d3-dispatch</title><text dy="0.32em" x="6" text-anchor="start" fill="none" stroke="#fff" stroke-width="3">d3-dispatch</text><text dy="0.32em" x="6" text-anchor="start">d3-dispatch</text></a><a transform="translate(384,-121.25)"><circle fill="#999" r="3"></circle><title>d3.d3-drag.d3-selection</title><text dy="0.32em" x="6" text-anchor="start" fill="none" stroke="#fff" stroke-width="3">d3-selection</text><text dy="0.32em" x="6" text-anchor="start">d3-selection</text></a><a transform="translate(384,-101.25)"><circle fill="#999" r="3"></circle><title>d3.d3-dsv.commander</title><text dy="0.32em" x="6" text-anchor="start" fill="none" stroke="#fff" stroke-width="3">commander</text><text dy="0.32em" x="6" text-anchor="start">commander</text></a><a transform="translate(384,-91.25)"><circle fill="#555" r="3"></circle><title>d3.d3-dsv.iconv-lite</title><text dy="0.32em" x="-6" text-anchor="end" fill="none" stroke="#fff" stroke-width="3">iconv-lite</text><text dy="0.32em" x="-6" text-anchor="end">iconv-lite</text></a><a transform="translate(384,-81.25)"><circle fill="#999" r="3"></circle><title>d3.d3-dsv.rw</title><text dy="0.32em" x="6" text-anchor="start" fill="none" stroke="#fff" stroke-width="3">rw</text><text dy="0.32em" x="6" text-anchor="start">rw</text></a><a transform="translate(384,-61.25)"><circle fill="#555" r="3"></circle><title>d3.d3-fetch.d3-dsv</title><text dy="0.32em" x="-6" text-anchor="end" fill="none" stroke="#fff" stroke-width="3">d3-dsv</text><text dy="0.32em" x="-6" text-anchor="end">d3-dsv</text></a><a transform="translate(384,-41.25)"><circle fill="#999" r="3"></circle><title>d3.d3-force.d3-dispatch</title><text dy="0.32em" x="6" text-anchor="start" fill="none" stroke="#fff" stroke-width="3">d3-dispatch</text><text dy="0.32em" x="6" text-anchor="start">d3-dispatch</text></a><a transform="translate(384,-31.25)"><circle fill="#999" r="3"></circle><title>d3.d3-force.d3-quadtree</title><text dy="0.32em" x="6" text-anchor="start" fill="none" stroke="#fff" stroke-width="3">d3-quadtree</text><text dy="0.32em" x="6" text-anchor="start">d3-quadtree</text></a><a transform="translate(384,-21.25)"><circle fill="#999" r="3"></circle><title>d3.d3-force.d3-timer</title><text dy="0.32em" x="6" text-anchor="start" fill="none" stroke="#fff" stroke-width="3">d3-timer</text><text dy="0.32em" x="6" text-anchor="start">d3-timer</text></a><a transform="translate(384,-1.25)"><circle fill="#555" r="3"></circle><title>d3.d3-geo.d3-array</title><text dy="0.32em" x="-6" text-anchor="end" fill="none" stroke="#fff" stroke-width="3">d3-array</text><text dy="0.32em" x="-6" text-anchor="end">d3-array</text></a><a transform="translate(384,18.75)"><circle fill="#999" r="3"></circle><title>d3.d3-interpolate.d3-color</title><text dy="0.32em" x="6" text-anchor="start" fill="none" stroke="#fff" stroke-width="3">d3-color</text><text dy="0.32em" x="6" text-anchor="start">d3-color</text></a><a transform="translate(384,38.75)"><circle fill="#555" r="3"></circle><title>d3.d3-scale.d3-array</title><text dy="0.32em" x="-6" text-anchor="end" fill="none" stroke="#fff" stroke-width="3">d3-array</text><text dy="0.32em" x="-6" text-anchor="end">d3-array</text></a><a transform="translate(384,48.75)"><circle fill="#999" r="3"></circle><title>d3.d3-scale.d3-format</title><text dy="0.32em" x="6" text-anchor="start" fill="none" stroke="#fff" stroke-width="3">d3-format</text><text dy="0.32em" x="6" text-anchor="start">d3-format</text></a><a transform="translate(384,58.75)"><circle fill="#555" r="3"></circle><title>d3.d3-scale.d3-interpolate</title><text dy="0.32em" x="-6" text-anchor="end" fill="none" stroke="#fff" stroke-width="3">d3-interpolate</text><text dy="0.32em" x="-6" text-anchor="end">d3-interpolate</text></a><a transform="translate(384,78.75)"><circle fill="#555" r="3"></circle><title>d3.d3-scale.d3-time</title><text dy="0.32em" x="-6" text-anchor="end" fill="none" stroke="#fff" stroke-width="3">d3-time</text><text dy="0.32em" x="-6" text-anchor="end">d3-time</text></a><a transform="translate(384,98.75)"><circle fill="#555" r="3"></circle><title>d3.d3-scale.d3-time-format</title><text dy="0.32em" x="-6" text-anchor="end" fill="none" stroke="#fff" stroke-width="3">d3-time-format</text><text dy="0.32em" x="-6" text-anchor="end">d3-time-format</text></a><a transform="translate(384,118.75)"><circle fill="#999" r="3"></circle><title>d3.d3-scale-chromatic.d3-color</title><text dy="0.32em" x="6" text-anchor="start" fill="none" stroke="#fff" stroke-width="3">d3-color</text><text dy="0.32em" x="6" text-anchor="start">d3-color</text></a><a transform="translate(384,128.75)"><circle fill="#555" r="3"></circle><title>d3.d3-scale-chromatic.d3-interpolate</title><text dy="0.32em" x="-6" text-anchor="end" fill="none" stroke="#fff" stroke-width="3">d3-interpolate</text><text dy="0.32em" x="-6" text-anchor="end">d3-interpolate</text></a><a transform="translate(384,148.75)"><circle fill="#999" r="3"></circle><title>d3.d3-shape.d3-path</title><text dy="0.32em" x="6" text-anchor="start" fill="none" stroke="#fff" stroke-width="3">d3-path</text><text dy="0.32em" x="6" text-anchor="start">d3-path</text></a><a transform="translate(384,168.75)"><circle fill="#555" r="3"></circle><title>d3.d3-time.d3-array</title><text dy="0.32em" x="-6" text-anchor="end" fill="none" stroke="#fff" stroke-width="3">d3-array</text><text dy="0.32em" x="-6" text-anchor="end">d3-array</text></a><a transform="translate(384,188.75)"><circle fill="#555" r="3"></circle><title>d3.d3-time-format.d3-time</title><text dy="0.32em" x="-6" text-anchor="end" fill="none" stroke="#fff" stroke-width="3">d3-time</text><text dy="0.32em" x="-6" text-anchor="end">d3-time</text></a><a transform="translate(384,208.75)"><circle fill="#999" r="3"></circle><title>d3.d3-transition.d3-color</title><text dy="0.32em" x="6" text-anchor="start" fill="none" stroke="#fff" stroke-width="3">d3-color</text><text dy="0.32em" x="6" text-anchor="start">d3-color</text></a><a transform="translate(384,218.75)"><circle fill="#999" r="3"></circle><title>d3.d3-transition.d3-dispatch</title><text dy="0.32em" x="6" text-anchor="start" fill="none" stroke="#fff" stroke-width="3">d3-dispatch</text><text dy="0.32em" x="6" text-anchor="start">d3-dispatch</text></a><a transform="translate(384,228.75)"><circle fill="#999" r="3"></circle><title>d3.d3-transition.d3-ease</title><text dy="0.32em" x="6" text-anchor="start" fill="none" stroke="#fff" stroke-width="3">d3-ease</text><text dy="0.32em" x="6" text-anchor="start">d3-ease</text></a><a transform="translate(384,238.75)"><circle fill="#555" r="3"></circle><title>d3.d3-transition.d3-interpolate</title><text dy="0.32em" x="-6" text-anchor="end" fill="none" stroke="#fff" stroke-width="3">d3-interpolate</text><text dy="0.32em" x="-6" text-anchor="end">d3-interpolate</text></a><a transform="translate(384,248.75)"><circle fill="#999" r="3"></circle><title>d3.d3-transition.d3-timer</title><text dy="0.32em" x="6" text-anchor="start" fill="none" stroke="#fff" stroke-width="3">d3-timer</text><text dy="0.32em" x="6" text-anchor="start">d3-timer</text></a><a transform="translate(384,268.75)"><circle fill="#999" r="3"></circle><title>d3.d3-zoom.d3-dispatch</title><text dy="0.32em" x="6" text-anchor="start" fill="none" stroke="#fff" stroke-width="3">d3-dispatch</text><text dy="0.32em" x="6" text-anchor="start">d3-dispatch</text></a><a transform="translate(384,278.75)"><circle fill="#555" r="3"></circle><title>d3.d3-zoom.d3-drag</title><text dy="0.32em" x="-6" text-anchor="end" fill="none" stroke="#fff" stroke-width="3">d3-drag</text><text dy="0.32em" x="-6" text-anchor="end">d3-drag</text></a><a transform="translate(384,303.75)"><circle fill="#555" r="3"></circle><title>d3.d3-zoom.d3-interpolate</title><text dy="0.32em" x="-6" text-anchor="end" fill="none" stroke="#fff" stroke-width="3">d3-interpolate</text><text dy="0.32em" x="-6" text-anchor="end">d3-interpolate</text></a><a transform="translate(384,323.75)"><circle fill="#999" r="3"></circle><title>d3.d3-zoom.d3-selection</title><text dy="0.32em" x="6" text-anchor="start" fill="none" stroke="#fff" stroke-width="3">d3-selection</text><text dy="0.32em" x="6" text-anchor="start">d3-selection</text></a><a transform="translate(384,343.75)"><circle fill="#555" r="3"></circle><title>d3.d3-zoom.d3-transition</title><text dy="0.32em" x="-6" text-anchor="end" fill="none" stroke="#fff" stroke-width="3">d3-transition</text><text dy="0.32em" x="-6" text-anchor="end">d3-transition</text></a><a transform="translate(576,-281.25)"><circle fill="#999" r="3"></circle><title>d3.d3-brush.d3-drag.d3-dispatch</title><text dy="0.32em" x="6" text-anchor="start" fill="none" stroke="#fff" stroke-width="3">d3-dispatch</text><text dy="0.32em" x="6" text-anchor="start">d3-dispatch</text></a><a transform="translate(576,-271.25)"><circle fill="#999" r="3"></circle><title>d3.d3-brush.d3-drag.d3-selection</title><text dy="0.32em" x="6" text-anchor="start" fill="none" stroke="#fff" stroke-width="3">d3-selection</text><text dy="0.32em" x="6" text-anchor="start">d3-selection</text></a><a transform="translate(576,-251.25)"><circle fill="#999" r="3"></circle><title>d3.d3-brush.d3-interpolate.d3-color</title><text dy="0.32em" x="6" text-anchor="start" fill="none" stroke="#fff" stroke-width="3">d3-color</text><text dy="0.32em" x="6" text-anchor="start">d3-color</text></a><a transform="translate(576,-231.25)"><circle fill="#999" r="3"></circle><title>d3.d3-brush.d3-transition.d3-color</title><text dy="0.32em" x="6" text-anchor="start" fill="none" stroke="#fff" stroke-width="3">d3-color</text><text dy="0.32em" x="6" text-anchor="start">d3-color</text></a><a transform="translate(576,-221.25)"><circle fill="#999" r="3"></circle><title>d3.d3-brush.d3-transition.d3-dispatch</title><text dy="0.32em" x="6" text-anchor="start" fill="none" stroke="#fff" stroke-width="3">d3-dispatch</text><text dy="0.32em" x="6" text-anchor="start">d3-dispatch</text></a><a transform="translate(576,-211.25)"><circle fill="#999" r="3"></circle><title>d3.d3-brush.d3-transition.d3-ease</title><text dy="0.32em" x="6" text-anchor="start" fill="none" stroke="#fff" stroke-width="3">d3-ease</text><text dy="0.32em" x="6" text-anchor="start">d3-ease</text></a><a transform="translate(576,-201.25)"><circle fill="#555" r="3"></circle><title>d3.d3-brush.d3-transition.d3-interpolate</title><text dy="0.32em" x="-6" text-anchor="end" fill="none" stroke="#fff" stroke-width="3">d3-interpolate</text><text dy="0.32em" x="-6" text-anchor="end">d3-interpolate</text></a><a transform="translate(576,-191.25)"><circle fill="#999" r="3"></circle><title>d3.d3-brush.d3-transition.d3-timer</title><text dy="0.32em" x="6" text-anchor="start" fill="none" stroke="#fff" stroke-width="3">d3-timer</text><text dy="0.32em" x="6" text-anchor="start">d3-timer</text></a><a transform="translate(576,-171.25)"><circle fill="#999" r="3"></circle><title>d3.d3-contour.d3-array.internmap</title><text dy="0.32em" x="6" text-anchor="start" fill="none" stroke="#fff" stroke-width="3">internmap</text><text dy="0.32em" x="6" text-anchor="start">internmap</text></a><a transform="translate(576,-151.25)"><circle fill="#999" r="3"></circle><title>d3.d3-delaunay.delaunator.robust-predicates</title><text dy="0.32em" x="6" text-anchor="start" fill="none" stroke="#fff" stroke-width="3">robust-predicates</text><text dy="0.32em" x="6" text-anchor="start">robust-predicates</text></a><a transform="translate(576,-91.25)"><circle fill="#999" r="3"></circle><title>d3.d3-dsv.iconv-lite.safer-buffer</title><text dy="0.32em" x="6" text-anchor="start" fill="none" stroke="#fff" stroke-width="3">safer-buffer</text><text dy="0.32em" x="6" text-anchor="start">safer-buffer</text></a><a transform="translate(576,-71.25)"><circle fill="#999" r="3"></circle><title>d3.d3-fetch.d3-dsv.commander</title><text dy="0.32em" x="6" text-anchor="start" fill="none" stroke="#fff" stroke-width="3">commander</text><text dy="0.32em" x="6" text-anchor="start">commander</text></a><a transform="translate(576,-61.25)"><circle fill="#555" r="3"></circle><title>d3.d3-fetch.d3-dsv.iconv-lite</title><text dy="0.32em" x="-6" text-anchor="end" fill="none" stroke="#fff" stroke-width="3">iconv-lite</text><text dy="0.32em" x="-6" text-anchor="end">iconv-lite</text></a><a transform="translate(576,-51.25)"><circle fill="#999" r="3"></circle><title>d3.d3-fetch.d3-dsv.rw</title><text dy="0.32em" x="6" text-anchor="start" fill="none" stroke="#fff" stroke-width="3">rw</text><text dy="0.32em" x="6" text-anchor="start">rw</text></a><a transform="translate(576,-1.25)"><circle fill="#999" r="3"></circle><title>d3.d3-geo.d3-array.internmap</title><text dy="0.32em" x="6" text-anchor="start" fill="none" stroke="#fff" stroke-width="3">internmap</text><text dy="0.32em" x="6" text-anchor="start">internmap</text></a><a transform="translate(576,38.75)"><circle fill="#999" r="3"></circle><title>d3.d3-scale.d3-array.internmap</title><text dy="0.32em" x="6" text-anchor="start" fill="none" stroke="#fff" stroke-width="3">internmap</text><text dy="0.32em" x="6" text-anchor="start">internmap</text></a><a transform="translate(576,58.75)"><circle fill="#999" r="3"></circle><title>d3.d3-scale.d3-interpolate.d3-color</title><text dy="0.32em" x="6" text-anchor="start" fill="none" stroke="#fff" stroke-width="3">d3-color</text><text dy="0.32em" x="6" text-anchor="start">d3-color</text></a><a transform="translate(576,78.75)"><circle fill="#555" r="3"></circle><title>d3.d3-scale.d3-time.d3-array</title><text dy="0.32em" x="-6" text-anchor="end" fill="none" stroke="#fff" stroke-width="3">d3-array</text><text dy="0.32em" x="-6" text-anchor="end">d3-array</text></a><a transform="translate(576,98.75)"><circle fill="#555" r="3"></circle><title>d3.d3-scale.d3-time-format.d3-time</title><text dy="0.32em" x="-6" text-anchor="end" fill="none" stroke="#fff" stroke-width="3">d3-time</text><text dy="0.32em" x="-6" text-anchor="end">d3-time</text></a><a transform="translate(576,128.75)"><circle fill="#999" r="3"></circle><title>d3.d3-scale-chromatic.d3-interpolate.d3-color</title><text dy="0.32em" x="6" text-anchor="start" fill="none" stroke="#fff" stroke-width="3">d3-color</text><text dy="0.32em" x="6" text-anchor="start">d3-color</text></a><a transform="translate(576,168.75)"><circle fill="#999" r="3"></circle><title>d3.d3-time.d3-array.internmap</title><text dy="0.32em" x="6" text-anchor="start" fill="none" stroke="#fff" stroke-width="3">internmap</text><text dy="0.32em" x="6" text-anchor="start">internmap</text></a><a transform="translate(576,188.75)"><circle fill="#555" r="3"></circle><title>d3.d3-time-format.d3-time.d3-array</title><text dy="0.32em" x="-6" text-anchor="end" fill="none" stroke="#fff" stroke-width="3">d3-array</text><text dy="0.32em" x="-6" text-anchor="end">d3-array</text></a><a transform="translate(576,238.75)"><circle fill="#999" r="3"></circle><title>d3.d3-transition.d3-interpolate.d3-color</title><text dy="0.32em" x="6" text-anchor="start" fill="none" stroke="#fff" stroke-width="3">d3-color</text><text dy="0.32em" x="6" text-anchor="start">d3-color</text></a><a transform="translate(576,273.75)"><circle fill="#999" r="3"></circle><title>d3.d3-zoom.d3-drag.d3-dispatch</title><text dy="0.32em" x="6" text-anchor="start" fill="none" stroke="#fff" stroke-width="3">d3-dispatch</text><text dy="0.32em" x="6" text-anchor="start">d3-dispatch</text></a><a transform="translate(576,283.75)"><circle fill="#999" r="3"></circle><title>d3.d3-zoom.d3-drag.d3-selection</title><text dy="0.32em" x="6" text-anchor="start" fill="none" stroke="#fff" stroke-width="3">d3-selection</text><text dy="0.32em" x="6" text-anchor="start">d3-selection</text></a><a transform="translate(576,303.75)"><circle fill="#999" r="3"></circle><title>d3.d3-zoom.d3-interpolate.d3-color</title><text dy="0.32em" x="6" text-anchor="start" fill="none" stroke="#fff" stroke-width="3">d3-color</text><text dy="0.32em" x="6" text-anchor="start">d3-color</text></a><a transform="translate(576,323.75)"><circle fill="#999" r="3"></circle><title>d3.d3-zoom.d3-transition.d3-color</title><text dy="0.32em" x="6" text-anchor="start" fill="none" stroke="#fff" stroke-width="3">d3-color</text><text dy="0.32em" x="6" text-anchor="start">d3-color</text></a><a transform="translate(576,333.75)"><circle fill="#999" r="3"></circle><title>d3.d3-zoom.d3-transition.d3-dispatch</title><text dy="0.32em" x="6" text-anchor="start" fill="none" stroke="#fff" stroke-width="3">d3-dispatch</text><text dy="0.32em" x="6" text-anchor="start">d3-dispatch</text></a><a transform="translate(576,343.75)"><circle fill="#999" r="3"></circle><title>d3.d3-zoom.d3-transition.d3-ease</title><text dy="0.32em" x="6" text-anchor="start" fill="none" stroke="#fff" stroke-width="3">d3-ease</text><text dy="0.32em" x="6" text-anchor="start">d3-ease</text></a><a transform="translate(576,353.75)"><circle fill="#555" r="3"></circle><title>d3.d3-zoom.d3-transition.d3-interpolate</title><text dy="0.32em" x="-6" text-anchor="end" fill="none" stroke="#fff" stroke-width="3">d3-interpolate</text><text dy="0.32em" x="-6" text-anchor="end">d3-interpolate</text></a><a transform="translate(576,363.75)"><circle fill="#999" r="3"></circle><title>d3.d3-zoom.d3-transition.d3-timer</title><text dy="0.32em" x="6" text-anchor="start" fill="none" stroke="#fff" stroke-width="3">d3-timer</text><text dy="0.32em" x="6" text-anchor="start">d3-timer</text></a><a transform="translate(768,-201.25)"><circle fill="#999" r="3"></circle><title>d3.d3-brush.d3-transition.d3-interpolate.d3-color</title><text dy="0.32em" x="6" text-anchor="start" fill="none" stroke="#fff" stroke-width="3">d3-color</text><text dy="0.32em" x="6" text-anchor="start">d3-color</text></a><a transform="translate(768,-61.25)"><circle fill="#999" r="3"></circle><title>d3.d3-fetch.d3-dsv.iconv-lite.safer-buffer</title><text dy="0.32em" x="6" text-anchor="start" fill="none" stroke="#fff" stroke-width="3">safer-buffer</text><text dy="0.32em" x="6" text-anchor="start">safer-buffer</text></a><a transform="translate(768,78.75)"><circle fill="#999" r="3"></circle><title>d3.d3-scale.d3-time.d3-array.internmap</title><text dy="0.32em" x="6" text-anchor="start" fill="none" stroke="#fff" stroke-width="3">internmap</text><text dy="0.32em" x="6" text-anchor="start">internmap</text></a><a transform="translate(768,98.75)"><circle fill="#555" r="3"></circle><title>d3.d3-scale.d3-time-format.d3-time.d3-array</title><text dy="0.32em" x="-6" text-anchor="end" fill="none" stroke="#fff" stroke-width="3">d3-array</text><text dy="0.32em" x="-6" text-anchor="end">d3-array</text></a><a transform="translate(768,188.75)"><circle fill="#999" r="3"></circle><title>d3.d3-time-format.d3-time.d3-array.internmap</title><text dy="0.32em" x="6" text-anchor="start" fill="none" stroke="#fff" stroke-width="3">internmap</text><text dy="0.32em" x="6" text-anchor="start">internmap</text></a><a transform="translate(768,353.75)"><circle fill="#999" r="3"></circle><title>d3.d3-zoom.d3-transition.d3-interpolate.d3-color</title><text dy="0.32em" x="6" text-anchor="start" fill="none" stroke="#fff" stroke-width="3">d3-color</text><text dy="0.32em" x="6" text-anchor="start">d3-color</text></a><a transform="translate(960,98.75)"><circle fill="#999" r="3"></circle><title>d3.d3-scale.d3-time-format.d3-time.d3-array.internmap</title><text dy="0.32em" x="6" text-anchor="start" fill="none" stroke="#fff" stroke-width="3">internmap</text><text dy="0.32em" x="6" text-anchor="start">internmap</text></a></g></svg>