<svg xmlns="http://www.w3.org/2000/svg" width="680" height="480"><rect height="480" width="680" x="0" y="0" style="fill: #fff; stroke: #000;"></rect><g><rect height="15.223880597014928" width="430" x="0.5" y="1.6915422885572013"></rect><rect height="15.223880597014928" width="403.2411408815903" x="0.5" y="18.606965174129343"></rect><rect height="15.223880597014928" width="92.91270527225583" x="0.5" y="35.522388059701484"></rect><rect height="15.223880597014928" width="92.91270527225583" x="0.5" y="52.437810945273625"></rect><rect height="15.223880597014928" width="92.91270527225583" x="0.5" y="69.35323383084577"></rect><rect height="15.223880597014928" width="92.91270527225583" x="0.5" y="86.26865671641791"></rect><rect height="15.223880597014928" width="92.91270527225583" x="0.5" y="103.18407960199005"></rect><rect height="15.223880597014928" width="92.91270527225583" x="0.5" y="120.09950248756219"></rect><rect height="15.223880597014928" width="73.58686257562663" x="0.5" y="137.01492537313433"></rect><rect height="15.223880597014928" width="65.03889369057909" x="0.5" y="153.93034825870646"></rect><rect height="15.223880597014928" width="55.747623163353495" x="0.5" y="170.84577114427861"></rect><rect height="15.223880597014928" width="55.37597234226448" x="0.5" y="187.76119402985077"></rect><rect height="15.223880597014928" width="49.057908383751084" x="0.5" y="204.6766169154229"></rect><rect height="15.223880597014928" width="48.31460674157303" x="0.5" y="221.59203980099502"></rect><rect height="15.223880597014928" width="48.31460674157303" x="0.5" y="238.50746268656718"></rect><rect height="15.223880597014928" width="46.45635263612792" x="0.5" y="255.42288557213934"></rect><rect height="15.223880597014928" width="46.45635263612792" x="0.5" y="272.3383084577115"></rect><rect height="15.223880597014928" width="37.16508210890233" x="0.5" y="289.25373134328356"></rect><rect height="15.223880597014928" width="37.16508210890233" x="0.5" y="306.16915422885575"></rect><rect height="15.223880597014928" width="37.16508210890233" x="0.5" y="323.08457711442793"></rect></g></svg>