<svg xmlns="http://www.w3.org/2000/svg" width="680" height="480"><rect height="480" width="680" x="0" y="0" style="fill: #fff;"></rect><rect height="480" width="680" x="0" y="0" style="stroke: #000; fill: none;"></rect><rect x="200" y="80" height="340" width="430" style="fill: #00AFDB;"></rect><g transform="translate(200, 420)" fill="none" font-size="10" font-family="sans-serif" text-anchor="middle"><path class="domain" stroke="currentColor" d="M0.5,6V0.5H430.5V6"></path><g class="tick" opacity="1" transform="translate(0.5,0)"><line stroke="currentColor" y2="6"></line><text fill="currentColor" y="9" dy="0.71em" transform="translate(-10,0)rotate(-45)" style="text-anchor: end;">0</text></g><g class="tick" opacity="1" transform="translate(37.66508210890233,0)"><line stroke="currentColor" y2="6"></line><text fill="currentColor" y="9" dy="0.71em" transform="translate(-10,0)rotate(-45)" style="text-anchor: end;">100</text></g><g class="tick" opacity="1" transform="translate(74.83016421780466,0)"><line stroke="currentColor" y2="6"></line><text fill="currentColor" y="9" dy="0.71em" transform="translate(-10,0)rotate(-45)" style="text-anchor: end;">200</text></g><g class="tick" opacity="1" transform="translate(111.99524632670699,0)"><line stroke="currentColor" y2="6"></line><text fill="currentColor" y="9" dy="0.71em" transform="translate(-10,0)rotate(-45)" style="text-anchor: end;">300</text></g><g class="tick" opacity="1" transform="translate(149.16032843560933,0)"><line stroke="currentColor" y2="6"></line><text fill="currentColor" y="9" dy="0.71em" transform="translate(-10,0)rotate(-45)" style="text-anchor: end;">400</text></g><g class="tick" opacity="1" transform="translate(186.32541054451167,0)"><line stroke="currentColor" y2="6"></line><text fill="currentColor" y="9" dy="0.71em" transform="translate(-10,0)rotate(-45)" style="text-anchor: end;">500</text></g><g class="tick" opacity="1" transform="translate(223.49049265341398,0)"><line stroke="currentColor" y2="6"></line><text fill="currentColor" y="9" dy="0.71em" transform="translate(-10,0)rotate(-45)" style="text-anchor: end;">600</text></g><g class="tick" opacity="1" transform="translate(260.65557476231635,0)"><line stroke="currentColor" y2="6"></line><text fill="currentColor" y="9" dy="0.71em" transform="translate(-10,0)rotate(-45)" style="text-anchor: end;">700</text></g><g class="tick" opacity="1" transform="translate(297.82065687121866,0)"><line stroke="currentColor" y2="6"></line><text fill="currentColor" y="9" dy="0.71em" transform="translate(-10,0)rotate(-45)" style="text-anchor: end;">800</text></g><g class="tick" opacity="1" transform="translate(334.985738980121,0)"><line stroke="currentColor" y2="6"></line><text fill="currentColor" y="9" dy="0.71em" transform="translate(-10,0)rotate(-45)" style="text-anchor: end;">900</text></g><g class="tick" opacity="1" transform="translate(372.15082108902334,0)"><line stroke="currentColor" y2="6"></line><text fill="currentColor" y="9" dy="0.71em" transform="translate(-10,0)rotate(-45)" style="text-anchor: end;">1,000</text></g><g class="tick" opacity="1" transform="translate(409.31590319792565,0)"><line stroke="currentColor" y2="6"></line><text fill="currentColor" y="9" dy="0.71em" transform="translate(-10,0)rotate(-45)" style="text-anchor: end;">1,100</text></g></g><text x="340" y="53.333333333333336" text-anchor="middle" style="font-size: 18px; font-weight: bold;">Brewdog's Most Bitter Beers</text><text text-anchor="end" x="655" y="445" style="font-size: 14px; font-weight: bold;">IBU</text></svg>