<svg xmlns="http://www.w3.org/2000/svg" width="680" height="480"><rect height="480" width="680" x="0" y="0" style="fill: #fff;"></rect><g transform="translate(200, 420)" fill="none" font-size="10" font-family="sans-serif" text-anchor="middle"><path class="domain" stroke="currentColor" d="M0.5,6V0.5H430.5V6"></path><g class="tick" opacity="1" transform="translate(0.5,0)"><line stroke="currentColor" y2="6"></line><text fill="currentColor" y="9" dy="0.71em" transform="translate(-10,0)rotate(-45)" style="text-anchor: end;">0</text></g><g class="tick" opacity="1" transform="translate(37.66508210890233,0)"><line stroke="currentColor" y2="6"></line><text fill="currentColor" y="9" dy="0.71em" transform="translate(-10,0)rotate(-45)" style="text-anchor: end;">100</text></g><g class="tick" opacity="1" transform="translate(74.83016421780466,0)"><line stroke="currentColor" y2="6"></line><text fill="currentColor" y="9" dy="0.71em" transform="translate(-10,0)rotate(-45)" style="text-anchor: end;">200</text></g><g class="tick" opacity="1" transform="translate(111.99524632670699,0)"><line stroke="currentColor" y2="6"></line><text fill="currentColor" y="9" dy="0.71em" transform="translate(-10,0)rotate(-45)" style="text-anchor: end;">300</text></g><g class="tick" opacity="1" transform="translate(149.16032843560933,0)"><line stroke="currentColor" y2="6"></line><text fill="currentColor" y="9" dy="0.71em" transform="translate(-10,0)rotate(-45)" style="text-anchor: end;">400</text></g><g class="tick" opacity="1" transform="translate(186.32541054451167,0)"><line stroke="currentColor" y2="6"></line><text fill="currentColor" y="9" dy="0.71em" transform="translate(-10,0)rotate(-45)" style="text-anchor: end;">500</text></g><g class="tick" opacity="1" transform="translate(223.49049265341398,0)"><line stroke="currentColor" y2="6"></line><text fill="currentColor" y="9" dy="0.71em" transform="translate(-10,0)rotate(-45)" style="text-anchor: end;">600</text></g><g class="tick" opacity="1" transform="translate(260.65557476231635,0)"><line stroke="currentColor" y2="6"></line><text fill="currentColor" y="9" dy="0.71em" transform="translate(-10,0)rotate(-45)" style="text-anchor: end;">700</text></g><g class="tick" opacity="1" transform="translate(297.82065687121866,0)"><line stroke="currentColor" y2="6"></line><text fill="currentColor" y="9" dy="0.71em" transform="translate(-10,0)rotate(-45)" style="text-anchor: end;">800</text></g><g class="tick" opacity="1" transform="translate(334.985738980121,0)"><line stroke="currentColor" y2="6"></line><text fill="currentColor" y="9" dy="0.71em" transform="translate(-10,0)rotate(-45)" style="text-anchor: end;">900</text></g><g class="tick" opacity="1" transform="translate(372.15082108902334,0)"><line stroke="currentColor" y2="6"></line><text fill="currentColor" y="9" dy="0.71em" transform="translate(-10,0)rotate(-45)" style="text-anchor: end;">1,000</text></g><g class="tick" opacity="1" transform="translate(409.31590319792565,0)"><line stroke="currentColor" y2="6"></line><text fill="currentColor" y="9" dy="0.71em" transform="translate(-10,0)rotate(-45)" style="text-anchor: end;">1,100</text></g></g><text x="340" y="53.333333333333336" text-anchor="middle" style="font-size: 18px; font-weight: bold;">Brewdog's Most Bitter Beers</text><text text-anchor="end" x="655" y="445" style="font-size: 14px; font-weight: bold;">IBU</text><g fill="none" font-size="10" font-family="sans-serif" text-anchor="end" transform="translate(200, 80)" style="font-size: 12px; font-weight: light; fill: #000; stroke: none;"><g class="tick" opacity="1" transform="translate(0,9.303482587064664)"><line stroke="currentColor" x2="0"></line><text fill="currentColor" x="-3" dy="0.32em">Tactical Nuclear Penguin</text></g><g class="tick" opacity="1" transform="translate(0,26.218905472636806)"><line stroke="currentColor" x2="0"></line><text fill="currentColor" x="-3" dy="0.32em">Sink The Bismarck!</text></g><g class="tick" opacity="1" transform="translate(0,43.13432835820895)"><line stroke="currentColor" x2="0"></line><text fill="currentColor" x="-3" dy="0.32em">Jack Hammer</text></g><g class="tick" opacity="1" transform="translate(0,60.04975124378109)"><line stroke="currentColor" x2="0"></line><text fill="currentColor" x="-3" dy="0.32em">Monk Hammer</text></g><g class="tick" opacity="1" transform="translate(0,76.96517412935323)"><line stroke="currentColor" x2="0"></line><text fill="currentColor" x="-3" dy="0.32em">Chili Hammer</text></g><g class="tick" opacity="1" transform="translate(0,93.88059701492537)"><line stroke="currentColor" x2="0"></line><text fill="currentColor" x="-3" dy="0.32em">Rye Hammer</text></g><g class="tick" opacity="1" transform="translate(0,110.79601990049751)"><line stroke="currentColor" x2="0"></line><text fill="currentColor" x="-3" dy="0.32em">Black Hammer</text></g><g class="tick" opacity="1" transform="translate(0,127.71144278606965)"><line stroke="currentColor" x2="0"></line><text fill="currentColor" x="-3" dy="0.32em">Hop Shot</text></g><g class="tick" opacity="1" transform="translate(0,144.6268656716418)"><line stroke="currentColor" x2="0"></line><text fill="currentColor" x="-3" dy="0.32em">How To Disappear Completely</text></g><g class="tick" opacity="1" transform="translate(0,161.54228855721394)"><line stroke="currentColor" x2="0"></line><text fill="currentColor" x="-3" dy="0.32em">Hardkogt IPA</text></g><g class="tick" opacity="1" transform="translate(0,178.4577114427861)"><line stroke="currentColor" x2="0"></line><text fill="currentColor" x="-3" dy="0.32em">AB:06</text></g><g class="tick" opacity="1" transform="translate(0,195.37313432835825)"><line stroke="currentColor" x2="0"></line><text fill="currentColor" x="-3" dy="0.32em">Prototype 27</text></g><g class="tick" opacity="1" transform="translate(0,212.28855721393037)"><line stroke="currentColor" x2="0"></line><text fill="currentColor" x="-3" dy="0.32em">Homicidal Puppet Help Desk</text></g><g class="tick" opacity="1" transform="translate(0,229.2039800995025)"><line stroke="currentColor" x2="0"></line><text fill="currentColor" x="-3" dy="0.32em">Sorachi Bitter - B-Sides</text></g><g class="tick" opacity="1" transform="translate(0,246.11940298507466)"><line stroke="currentColor" x2="0"></line><text fill="currentColor" x="-3" dy="0.32em">Sunshine On Rye - B-Sides</text></g><g class="tick" opacity="1" transform="translate(0,263.0348258706468)"><line stroke="currentColor" x2="0"></line><text fill="currentColor" x="-3" dy="0.32em">Zephyr</text></g><g class="tick" opacity="1" transform="translate(0,279.95024875621897)"><line stroke="currentColor" x2="0"></line><text fill="currentColor" x="-3" dy="0.32em">Hardcore IPA</text></g><g class="tick" opacity="1" transform="translate(0,296.86567164179104)"><line stroke="currentColor" x2="0"></line><text fill="currentColor" x="-3" dy="0.32em">Devine Rebel (w/ Mikkeller)</text></g><g class="tick" opacity="1" transform="translate(0,313.7810945273632)"><line stroke="currentColor" x2="0"></line><text fill="currentColor" x="-3" dy="0.32em">AB:17</text></g><g class="tick" opacity="1" transform="translate(0,330.6965174129354)"><line stroke="currentColor" x2="0"></line><text fill="currentColor" x="-3" dy="0.32em">Mandarina Bavaria - IPA Is Dead</text></g></g></svg>